# xmcd CD database file
#
# Track frame offsets:
#	150
#	19202
#	34117
#	54956
#	74274
#	93285
#	111577
#	131327
#	150318
#	171673
#	187661
#	203991
#	224932
#	242698
#
# Disc length: 3474 seconds
#
# Revision: 11
# Processed by: cddbd v1.5.2PL0 Copyright (c) Steve Scherf et al.
# Submitted via: CDex 2.03
#
DISCID=c60d900e
DTITLE=Bon Jovi - Lost Highway
DYEAR=2007
DGENRE=Hard Rock
TTITLE0=Lost Highway
TTITLE1=Summertime
TTITLE2=(You Want To) Make A Memory
TTITLE3=Whole Lot Of Leavin'
TTITLE4=We Got It Going On (with Big and Rich)
TTITLE5=Any Other Day
TTITLE6=Seat Next To You
TTITLE7=Everybody's Broken
TTITLE8=Till We Ain't Strangers Anymore (feat. Leann Rimes)
TTITLE9=The Last Night
TTITLE10=One Step Closer
TTITLE11=I Love This Town
TTITLE12=Lonely [Bonus Track For Japan]
TTITLE13=Put The Boy Back In Cowboy [Bonus Track For Japan]
EXTD=YEAR: 2007
EXTT0=
EXTT1=
EXTT2=
EXTT3=
EXTT4=
EXTT5=
EXTT6=
EXTT7=
EXTT8=
EXTT9=
EXTT10=
EXTT11=
EXTT12=
EXTT13=
PLAYORDER=
